<svg xmlns="http://www.w3.org/2000/svg" viewBox="0 0 600 600">
  <style>
    .st0{display:none}.st3{fill:#ee3e24}
  </style>
  <ellipse transform="rotate(-45.001 300.043 300.294)" cx="300" cy="300.3" rx="300" ry="300" fill="#fff" id="bg"/>
  <g id="team" class="st0">
    <path class="st3" d="M462.4 172.2C442.8 142 395.6 91.3 300 91.3c-95.5 0-142.7 50.6-162.3 80.8-28.7 44.2-32 99.7-32 137.6 0 66.7 21 150.1 59.9 173.1C208 508 285 509.2 300 509.2s92-1.3 134.5-26.4c38.9-23 59.9-106.3 59.9-173.1 0-37.8-3.3-93.3-32-137.5zm-36.1 296.7c-38.9 23-112 24.1-126.2 24.1-14.3 0-87.4-1.2-126.2-24.1-32.1-19-51.9-97.3-51.9-159.1 0-35.8 3-88.2 29.4-128.8 17.8-27.4 60.8-73.4 148.7-73.4 87.9 0 130.9 46 148.7 73.4 26.4 40.6 29.4 92.9 29.4 128.8 0 61.8-19.9 140.1-51.9 159.1z"/>
    <path class="st3" d="M442.7 233.1c-22.7-34.1-91-46.2-142.6-46.2-51.6 0-119.9 12.1-142.6 46.2-16.5 24.8-18.8 48.8-17.6 93 2.4 90.1 62.3 143.9 160.2 143.9 97.9 0 157.8-53.8 160.2-143.9 1.1-44.3-1.1-68.2-17.6-93zm1.3 92.5c-1 38.5-17.1 128-144 128s-143-89.5-144-128c-1.1-41.5.7-62.2 14.9-83.5 17.9-26.9 77.7-39 129.1-39 51.3 0 111.2 12.1 129.1 39 14.2 21.3 16 42.1 14.9 83.5z"/>
    <path class="st3" d="M270.2 280.6H330c4.5 0 8.1-3.6 8.1-8.1s-3.6-8.1-8.1-8.1h-59.8c-4.5 0-8.1 3.6-8.1 8.1s3.6 8.1 8.1 8.1zM280.8 368.1c3.9-2.3 5.2-7.2 2.9-11.1l-28.4-48.7c-2.3-3.9-7.2-5.2-11.1-2.9-3.9 2.3-5.2 7.2-2.9 11.1l28.4 48.7c1.5 2.6 4.2 4 7 4 1.4 0 2.8-.4 4.1-1.1zM354.5 307.6c-3.9-2.2-8.8-.9-11.1 2.9l-25.8 44.1c-2.3 3.9-1 8.9 2.9 11.1 1.3.8 2.7 1.1 4.1 1.1 2.8 0 5.5-1.4 7-4l25.8-44.1c2.3-3.9 1-8.8-2.9-11.1zM375 244.7c-15.5 0-28.1 12.4-28.1 27.8 0 15.3 12.6 27.8 28.1 27.8s28.1-12.5 28.1-27.8c0-15.4-12.6-27.8-28.1-27.8zm0 41.5c-7.8 0-14.1-6.2-14.1-13.7 0-7.6 6.3-13.7 14.1-13.7s14.1 6.2 14.1 13.7c0 7.5-6.3 13.7-14.1 13.7zM253.2 272.4c0-15.3-12.6-27.8-28.1-27.8S197 257.1 197 272.4s12.6 27.8 28.1 27.8 28.1-12.4 28.1-27.8zm-28.1 13.8c-7.8 0-14.1-6.2-14.1-13.7 0-7.6 6.3-13.7 14.1-13.7s14.1 6.2 14.1 13.7c0 7.5-6.3 13.7-14.1 13.7zM300 373.2c-15.5 0-28.1 12.4-28.1 27.8 0 15.3 12.6 27.8 28.1 27.8 15.5 0 28.1-12.5 28.1-27.8.1-15.4-12.6-27.8-28.1-27.8zm0 41.5c-7.8 0-14.1-6.2-14.1-13.7 0-7.6 6.3-13.7 14.1-13.7s14.1 6.2 14.1 13.7c0 7.5-6.3 13.7-14.1 13.7z"/>
  </g>
  <g id="Layer_3">
    <path d="M507.2 92.8c-114.4-114.4-300-114.4-414.4 0C16.1 169.5-9.1 278.1 17 375.8l179-179 .4-.4c57.2-57.2 150-57.2 207.2 0 57.2 57.2 57.2 150 0 207.2l-.4.4-179 179c97.7 26.1 206.3.9 283-75.8 114.4-114.4 114.4-299.9 0-414.4z" fill="#26255e"/>
    <path d="M244.8 504.4l-20.9 20.9c-8.2 8.2-21.6 8.2-29.8 0s-8.2-21.6 0-29.8l20.9-20.9c8.2-8.2 21.6-8.2 29.8 0s8.2 21.5 0 29.8zm-134.3-14.9c-8.2-8.2-21.6-8.2-29.8 0l-20.9 20.9c-8.2 8.2-8.2 21.6 0 29.8s21.6 8.2 29.8 0l20.9-20.9c8.3-8.2 8.3-21.6 0-29.8zm260.3-111.2c.8-.7 1.6-1.5 2.3-2.3 41.2-41.2 41.2-108 0-149.2-41.2-41.2-108-41.2-149.2 0-1.4 1.4-2.7 2.8-4 4.3-.7.5-1.3 1.1-1.9 1.7L104.6 346.2c-8.2 8.2-8.2 21.6 0 29.8s21.6 8.2 29.8 0l47.7-47.7c8.2-8.2 21.6-8.2 29.8 0s8.2 21.6 0 29.8l-1.5 1.5-85 85c-8.2 8.2-8.2 21.6 0 29.8s21.6 8.2 29.8 0l86.5-86.5c8.2-8.2 21.6-8.2 29.8 0s8.2 21.6 0 29.8l-11.9 11.9c-8.2 8.2-8.2 21.6 0 29.8s21.6 8.2 29.8 0l80.6-80.6c.4 0 .6-.2.8-.5z" fill="#ef3d26"/>
  </g>
</svg>
